<?xml version="1.0" encoding="UTF-8"?>
<!DOCTYPE svg PUBLIC "-//W3C//DTD SVG 1.1//EN" "http://www.w3.org/Graphics/SVG/1.1/DTD/svg11.dtd">
<svg xmlns="http://www.w3.org/2000/svg" version="1.1" width="184px" height="192px" style="shape-rendering:geometricPrecision; text-rendering:geometricPrecision; image-rendering:optimizeQuality; fill-rule:evenodd; clip-rule:evenodd" xmlns:xlink="http://www.w3.org/1999/xlink">
<g><path style="opacity:1" fill="#1a7dcc" d="M 143.5,2.5 C 143.5,8.16667 143.5,13.8333 143.5,19.5C 140.167,19.5 136.833,19.5 133.5,19.5C 133.5,13.8333 133.5,8.16667 133.5,2.5C 136.914,1.75342 140.247,1.75342 143.5,2.5 Z"/></g>
<g><path style="opacity:1" fill="#18acdd" d="M 39.5,3.5 C 43.3714,3.18503 47.0381,3.51836 50.5,4.5C 49.1266,4.34332 47.7932,4.50999 46.5,5C 47.7883,7.46648 47.7883,9.96648 46.5,12.5C 48.0743,14.6033 49.0743,16.9367 49.5,19.5C 45.9009,18.6561 42.2343,18.3227 38.5,18.5C 38.6618,13.5631 38.9951,8.56307 39.5,3.5 Z"/></g>
<g><path style="opacity:1" fill="#188cd1" d="M 133.5,2.5 C 133.5,8.16667 133.5,13.8333 133.5,19.5C 131.039,20.531 128.373,21.1977 125.5,21.5C 124.824,16.0105 124.491,10.3438 124.5,4.5C 127.37,3.36639 130.37,2.69973 133.5,2.5 Z"/></g>
<g><path style="opacity:1" fill="#1a71c7" d="M 143.5,2.5 C 146.781,2.42032 149.781,3.08699 152.5,4.5C 151.511,9.97533 151.178,15.642 151.5,21.5C 148.933,20.525 146.267,19.8583 143.5,19.5C 143.5,13.8333 143.5,8.16667 143.5,2.5 Z"/></g>
<g><path style="opacity:1" fill="#11bbe2" d="M 39.5,3.5 C 38.9951,8.56307 38.6618,13.5631 38.5,18.5C 37.2921,19.2341 35.9587,19.5674 34.5,19.5C 33.7611,19.631 33.0944,19.4643 32.5,19C 33.5977,14.2161 33.5977,9.38277 32.5,4.5C 34.8056,4.00745 37.139,3.67412 39.5,3.5 Z"/></g>
<g><path style="opacity:1" fill="#189cd7" d="M 50.5,4.5 C 53.3854,4.1936 56.0521,4.52693 58.5,5.5C 57.1667,5.5 55.8333,5.5 54.5,5.5C 54.2213,10.5947 54.5546,15.5947 55.5,20.5C 53.5648,19.8505 51.5648,19.5172 49.5,19.5C 49.0743,16.9367 48.0743,14.6033 46.5,12.5C 47.7883,9.96648 47.7883,7.46648 46.5,5C 47.7932,4.50999 49.1266,4.34332 50.5,4.5 Z"/></g>
<g><path style="opacity:1" fill="#2068c4" d="M 152.5,4.5 C 155.912,5.04207 158.912,6.3754 161.5,8.5C 159.541,14.7496 158.874,21.4163 159.5,28.5C 157.289,25.7152 154.623,23.3819 151.5,21.5C 151.178,15.642 151.511,9.97533 152.5,4.5 Z"/></g>
<g><path style="opacity:1" fill="#14c9e8" d="M 32.5,4.5 C 33.5977,9.38277 33.5977,14.2161 32.5,19C 33.0944,19.4643 33.7611,19.631 34.5,19.5C 31.8695,21.1526 29.2028,22.8193 26.5,24.5C 26.5,18.5 26.5,12.5 26.5,6.5C 28.4214,5.63732 30.4214,4.97065 32.5,4.5 Z"/></g>
<g><path style="opacity:1" fill="#1c90d3" d="M 58.5,5.5 C 60.4147,5.21552 62.0813,5.54885 63.5,6.5C 62.5,6.5 61.5,6.5 60.5,6.5C 60.5,11.5 60.5,16.5 60.5,21.5C 58.8828,20.962 57.2161,20.6287 55.5,20.5C 54.5546,15.5947 54.2213,10.5947 54.5,5.5C 55.8333,5.5 57.1667,5.5 58.5,5.5 Z"/></g>
<g><path style="opacity:1" fill="#1982cd" d="M 63.5,6.5 C 66.7273,6.67615 69.7273,7.34281 72.5,8.5C 70.8967,8.31181 69.5634,8.81181 68.5,10C 69.072,14.4422 69.4053,18.9422 69.5,23.5C 66.5394,22.6766 63.5394,22.01 60.5,21.5C 60.5,16.5 60.5,11.5 60.5,6.5C 61.5,6.5 62.5,6.5 63.5,6.5 Z"/></g>
<g><path style="opacity:1" fill="#1597d5" d="M 124.5,4.5 C 124.491,10.3438 124.824,16.0105 125.5,21.5C 122.686,23.0697 119.686,24.4031 116.5,25.5C 115.511,20.0247 115.178,14.358 115.5,8.5C 118.378,6.89456 121.378,5.56123 124.5,4.5 Z"/></g>
<g><path style="opacity:1" fill="#1e6bc5" d="M 72.5,8.5 C 76.7607,8.89839 80.7607,9.89839 84.5,11.5C 82.8967,11.3118 81.5634,11.8118 80.5,13C 80.5,15.6667 80.5,18.3333 80.5,21C 81.0442,21.7172 81.7109,22.2172 82.5,22.5C 81.6829,24.4779 80.1829,25.4779 78,25.5C 75.1303,24.9073 72.297,24.2407 69.5,23.5C 69.4053,18.9422 69.072,14.4422 68.5,10C 69.5634,8.81181 70.8967,8.31181 72.5,8.5 Z"/></g>
<g><path style="opacity:1" fill="#1e5ec1" d="M 161.5,8.5 C 163.389,9.60398 165.055,10.9373 166.5,12.5C 165.502,37.6612 165.169,62.9945 165.5,88.5C 161.668,85.5011 158.335,82.0011 155.5,78C 159.247,66.1023 161.913,53.9357 163.5,41.5C 163.167,36.8148 161.834,32.4814 159.5,28.5C 158.874,21.4163 159.541,14.7496 161.5,8.5 Z"/></g>
<g><path style="opacity:1" fill="#0fd9ed" d="M 26.5,6.5 C 26.5,12.5 26.5,18.5 26.5,24.5C 20.3641,33.2942 18.8641,42.9609 22,53.5C 23.3768,58.5841 25.5435,63.2507 28.5,67.5C 26.5349,74.7605 25.8682,82.4271 26.5,90.5C 22.7621,87.0897 19.7621,83.0897 17.5,78.5C 17.5,56.1667 17.5,33.8333 17.5,11.5C 20.0078,9.07642 23.0078,7.40975 26.5,6.5 Z"/></g>
<g><path style="opacity:1" fill="#265dc0" d="M 84.5,11.5 C 87.753,11.5622 90.753,12.3956 93.5,14C 89.9574,17.0486 86.2907,19.8819 82.5,22.5C 81.7109,22.2172 81.0442,21.7172 80.5,21C 80.5,18.3333 80.5,15.6667 80.5,13C 81.5634,11.8118 82.8967,11.3118 84.5,11.5 Z"/></g>
<g><path style="opacity:1" fill="#14a4da" d="M 115.5,8.5 C 115.178,14.358 115.511,20.0247 116.5,25.5C 113.485,27.6744 110.151,29.3411 106.5,30.5C 106.692,25.1214 106.692,19.788 106.5,14.5C 108.946,11.7693 111.946,9.76933 115.5,8.5 Z"/></g>
<g><path style="opacity:1" fill="#1c56be" d="M 166.5,12.5 C 168.89,13.8908 170.557,15.8908 171.5,18.5C 170.711,18.7828 170.044,19.2828 169.5,20C 170.833,39.3333 170.833,58.6667 169.5,78C 170.044,78.7172 170.711,79.2172 171.5,79.5C 170.494,83.8579 169.327,88.1912 168,92.5C 166.905,91.3066 166.072,89.9733 165.5,88.5C 165.169,62.9945 165.502,37.6612 166.5,12.5 Z"/></g>
<g><path style="opacity:1" fill="#09e8f3" d="M 17.5,11.5 C 17.5,33.8333 17.5,56.1667 17.5,78.5C 15.1792,75.2041 12.8458,71.8708 10.5,68.5C 11.8333,51.8333 11.8333,35.1667 10.5,18.5C 12.5,15.8333 14.8333,13.5 17.5,11.5 Z"/></g>
<g><path style="opacity:1" fill="#14b0de" d="M 106.5,14.5 C 106.692,19.788 106.692,25.1214 106.5,30.5C 104.151,32.341 101.485,33.6743 98.5,34.5C 97.5139,30.03 97.1805,25.3633 97.5,20.5C 99.9754,17.7589 102.975,15.7589 106.5,14.5 Z"/></g>
<g><path style="opacity:1" fill="#2351bc" d="M 171.5,18.5 C 176.296,25.6647 178.629,33.6647 178.5,42.5C 177.578,55.1116 175.244,67.4449 171.5,79.5C 170.711,79.2172 170.044,78.7172 169.5,78C 170.833,58.6667 170.833,39.3333 169.5,20C 170.044,19.2828 170.711,18.7828 171.5,18.5 Z"/></g>
<g><path style="opacity:1" fill="#0ef4f7" d="M 10.5,18.5 C 11.8333,35.1667 11.8333,51.8333 10.5,68.5C 1.23126,51.7424 1.23126,35.0757 10.5,18.5 Z"/></g>
<g><path style="opacity:1" fill="#12bde3" d="M 97.5,20.5 C 97.1805,25.3633 97.5139,30.03 98.5,34.5C 95.669,36.4168 92.669,38.0834 89.5,39.5C 88.5166,35.7016 88.1832,31.7016 88.5,27.5C 91.1897,24.8154 94.1897,22.4821 97.5,20.5 Z"/></g>
<g><path style="opacity:1" fill="#18cde9" d="M 88.5,27.5 C 88.1832,31.7016 88.5166,35.7016 89.5,39.5C 84.5156,42.6589 79.1823,45.3256 73.5,47.5C 71.6565,45.7211 70.9898,43.3878 71.5,40.5C 76.8581,35.8144 82.5247,31.4811 88.5,27.5 Z"/></g>
<g><path style="opacity:1" fill="#7cfffc" d="M 119.5,46.5 C 118.833,45.1667 118.833,45.1667 119.5,46.5 Z"/></g>
<g><path style="opacity:1" fill="#23e6f2" d="M 71.5,40.5 C 70.9898,43.3878 71.6565,45.7211 73.5,47.5C 65.151,52.3412 56.4843,56.6745 47.5,60.5C 55.1831,53.4863 63.1831,46.8197 71.5,40.5 Z"/></g>
<g><path style="opacity:1" fill="#13fdfa" d="M 119.5,46.5 C 137.948,67.4546 155.115,89.4546 171,112.5C 175.431,120.624 177.931,129.29 178.5,138.5C 172.534,136.176 166.534,133.843 160.5,131.5C 159.446,127.836 158.279,124.169 157,120.5C 143.722,96.2785 131.222,71.6119 119.5,46.5 Z"/></g>
<g><path style="opacity:1" fill="#48fcfa" d="M 47.5,60.5 C 46.8333,61.1667 46.8333,61.1667 47.5,60.5 Z"/></g>
<g><path style="opacity:1" fill="#14c6e6" d="M 28.5,67.5 C 31.1667,72.8333 33.8333,78.1667 36.5,83.5C 35.5098,89.6446 35.1765,95.9779 35.5,102.5C 32.0251,98.8962 29.0251,94.8962 26.5,90.5C 25.8682,82.4271 26.5349,74.7605 28.5,67.5 Z"/></g>
<g><path style="opacity:1" fill="#0eaadc" d="M 86.5,76.5 C 87.5,76.5 88.5,76.5 89.5,76.5C 88.8665,84.9032 89.5332,92.9032 91.5,100.5C 91.8333,100.5 92.1667,100.5 92.5,100.5C 91.0813,101.451 89.4147,101.784 87.5,101.5C 86.5314,93.2517 86.1981,84.9183 86.5,76.5 Z"/></g>
<g><path style="opacity:1" fill="#0e97d5" d="M 89.5,76.5 C 90.1667,76.5 90.8333,76.5 91.5,76.5C 91.5,84.5 91.5,92.5 91.5,100.5C 89.5332,92.9032 88.8665,84.9032 89.5,76.5 Z"/></g>
<g><path style="opacity:1" fill="#1587cf" d="M 91.5,76.5 C 93.153,76.6596 94.4863,77.3263 95.5,78.5C 94.1667,85.5 94.1667,92.5 95.5,99.5C 94.791,100.404 93.791,100.737 92.5,100.5C 92.1667,100.5 91.8333,100.5 91.5,100.5C 91.5,92.5 91.5,84.5 91.5,76.5 Z"/></g>
<g><path style="opacity:1" fill="#11c6e6" d="M 86.5,76.5 C 86.1981,84.9183 86.5314,93.2517 87.5,101.5C 85.1815,101.008 83.1815,100.008 81.5,98.5C 81.5,92.1667 81.5,85.8333 81.5,79.5C 82.6594,77.7497 84.326,76.7497 86.5,76.5 Z"/></g>
<g><path style="opacity:1" fill="#1571c7" d="M 95.5,78.5 C 97.0269,78.427 98.0269,79.0937 98.5,80.5C 97.5111,85.9753 97.1778,91.642 97.5,97.5C 97.1667,98.5 96.5,99.1667 95.5,99.5C 94.1667,92.5 94.1667,85.5 95.5,78.5 Z"/></g>
<g><path style="opacity:1" fill="#215ec0" d="M 98.5,80.5 C 101.323,84.3196 102.156,88.6529 101,93.5C 100.34,95.3237 99.1733,96.657 97.5,97.5C 97.1778,91.642 97.5111,85.9753 98.5,80.5 Z"/></g>
<g><path style="opacity:1" fill="#16edf4" d="M 81.5,79.5 C 81.5,85.8333 81.5,92.1667 81.5,98.5C 76.4179,94.1401 75.2512,88.8068 78,82.5C 79.0391,81.2899 80.2058,80.2899 81.5,79.5 Z"/></g>
<g><path style="opacity:1" fill="#16b5e0" d="M 36.5,83.5 C 38.8333,88.1667 41.1667,92.8333 43.5,97.5C 42.5139,101.97 42.1805,106.637 42.5,111.5C 39.8154,108.81 37.4821,105.81 35.5,102.5C 35.1765,95.9779 35.5098,89.6446 36.5,83.5 Z"/></g>
<g><path style="opacity:1" fill="#1a6ec6" d="M 21.5,98.5 C 20.4096,100.649 18.5762,101.982 16,102.5C 13.9335,101.623 12.1002,101.29 10.5,101.5C 10.872,97.3452 11.872,93.3452 13.5,89.5C 16.3993,92.3028 19.066,95.3028 21.5,98.5 Z"/></g>
<g><path style="opacity:1" fill="#197fcc" d="M 21.5,98.5 C 23.8218,99.8021 25.1551,101.802 25.5,104.5C 19.9697,105.9 14.6363,107.9 9.5,110.5C 8.89333,110.376 8.55999,110.043 8.5,109.5C 8.56513,106.572 9.2318,103.905 10.5,101.5C 12.1002,101.29 13.9335,101.623 16,102.5C 18.5762,101.982 20.4096,100.649 21.5,98.5 Z"/></g>
<g><path style="opacity:1" fill="#178cd1" d="M 25.5,104.5 C 24.9759,106.306 24.3092,107.972 23.5,109.5C 18.3645,111.102 13.3645,113.102 8.5,115.5C 7.70245,115.043 7.36912,114.376 7.5,113.5C 7.23219,111.901 7.56552,110.568 8.5,109.5C 8.55999,110.043 8.89333,110.376 9.5,110.5C 14.6363,107.9 19.9697,105.9 25.5,104.5 Z"/></g>
<g><path style="opacity:1" fill="#1f9dd7" d="M 49.5,109.5 C 53.7702,117.707 57.7702,126.04 61.5,134.5C 56.6983,129.573 52.365,124.24 48.5,118.5C 48.3731,115.508 48.7064,112.508 49.5,109.5 Z"/></g>
<g><path style="opacity:1" fill="#13a7db" d="M 43.5,97.5 C 45.5,101.5 47.5,105.5 49.5,109.5C 48.7064,112.508 48.3731,115.508 48.5,118.5C 46.2733,116.393 44.2733,114.06 42.5,111.5C 42.1805,106.637 42.5139,101.97 43.5,97.5 Z"/></g>
<g><path style="opacity:1" fill="#1598d5" d="M 23.5,109.5 C 23.4828,111.565 23.1495,113.565 22.5,115.5C 17.4424,116.855 12.4424,118.522 7.5,120.5C 6.70245,120.043 6.36912,119.376 6.5,118.5C 6.21552,116.585 6.54885,114.919 7.5,113.5C 7.36912,114.376 7.70245,115.043 8.5,115.5C 13.3645,113.102 18.3645,111.102 23.5,109.5 Z"/></g>
<g><path style="opacity:1" fill="#11a4da" d="M 22.5,115.5 C 21.962,117.117 21.6287,118.784 21.5,120.5C 16.4424,121.855 11.4424,123.522 6.5,125.5C 5.70245,125.043 5.36912,124.376 5.5,123.5C 5.21552,121.585 5.54885,119.919 6.5,118.5C 6.36912,119.376 6.70245,120.043 7.5,120.5C 12.4424,118.522 17.4424,116.855 22.5,115.5 Z"/></g>
<g><path style="opacity:1" fill="#6bfffc" d="M 134.5,119.5 C 135.833,120.167 135.833,120.167 134.5,119.5 Z"/></g>
<g><path style="opacity:1" fill="#66fefc" d="M 132.5,121.5 C 132.842,120.662 133.508,120.328 134.5,120.5C 134.158,121.338 133.492,121.672 132.5,121.5 Z"/></g>
<g><path style="opacity:1" fill="#12b0de" d="M 21.5,120.5 C 20.962,122.117 20.6287,123.784 20.5,125.5C 15.0653,126.812 9.8986,128.812 5,131.5C 4.51722,130.552 4.35055,129.552 4.5,128.5C 4.21552,126.585 4.54885,124.919 5.5,123.5C 5.36912,124.376 5.70245,125.043 6.5,125.5C 11.4424,123.522 16.4424,121.855 21.5,120.5 Z"/></g>
<g><path style="opacity:1" fill="#0dfdfb" d="M 132.5,121.5 C 112.658,139.427 91.6584,155.927 69.5,171C 51.2153,182.62 33.2153,182.287 15.5,170C 10.7301,165.736 7.39677,160.569 5.5,154.5C 10.4262,152.636 15.4262,150.969 20.5,149.5C 25.0376,158.44 32.3709,162.773 42.5,162.5C 46.4643,161.561 50.4643,160.728 54.5,160C 80.3677,146.899 106.368,134.066 132.5,121.5 Z"/></g>
<g><path style="opacity:1" fill="#0fbce3" d="M 20.5,125.5 C 19.6993,127.042 19.366,128.708 19.5,130.5C 13.943,131.947 8.60965,133.947 3.5,136.5C 3.1936,133.615 3.52693,130.948 4.5,128.5C 4.35055,129.552 4.51722,130.552 5,131.5C 9.8986,128.812 15.0653,126.812 20.5,125.5 Z"/></g>
<g><path style="opacity:1" fill="#44a0da" d="M 61.5,134.5 C 62.8333,135.167 62.8333,135.167 61.5,134.5 Z"/></g>
<g><path style="opacity:1" fill="#10e6f2" d="M 160.5,131.5 C 166.534,133.843 172.534,136.176 178.5,138.5C 178.795,140.735 178.461,142.735 177.5,144.5C 177.53,143.503 177.03,142.836 176,142.5C 171.084,140.623 166.25,138.623 161.5,136.5C 160.549,135.081 160.216,133.415 160.5,131.5 Z"/></g>
<g><path style="opacity:1" fill="#0dc9e7" d="M 19.5,130.5 C 18.962,132.117 18.6287,133.784 18.5,135.5C 13.3476,137.107 8.34763,139.107 3.5,141.5C 3.5,139.833 3.5,138.167 3.5,136.5C 8.60965,133.947 13.943,131.947 19.5,130.5 Z"/></g>
<g><path style="opacity:1" fill="#07d5ec" d="M 18.5,135.5 C 18.5,137.167 18.5,138.833 18.5,140.5C 13.5738,142.364 8.57378,144.031 3.5,145.5C 3.5,144.167 3.5,142.833 3.5,141.5C 8.34763,139.107 13.3476,137.107 18.5,135.5 Z"/></g>
<g><path style="opacity:1" fill="#0cd1ea" d="M 161.5,136.5 C 166.25,138.623 171.084,140.623 176,142.5C 177.03,142.836 177.53,143.503 177.5,144.5C 177.706,147.495 177.04,150.162 175.5,152.5C 170.799,149.596 165.799,147.263 160.5,145.5C 161.299,142.57 161.632,139.57 161.5,136.5 Z"/></g>
<g><path style="opacity:1" fill="#0deaf3" d="M 18.5,140.5 C 18.4054,143.697 19.0721,146.697 20.5,149.5C 15.4262,150.969 10.4262,152.636 5.5,154.5C 4.67664,151.539 4.00997,148.539 3.5,145.5C 8.57378,144.031 13.5738,142.364 18.5,140.5 Z"/></g>
<g><path style="opacity:1" fill="#0ec1e4" d="M 160.5,145.5 C 165.799,147.263 170.799,149.596 175.5,152.5C 175.737,153.791 175.404,154.791 174.5,155.5C 169.383,153.774 164.383,151.774 159.5,149.5C 160.234,148.292 160.567,146.959 160.5,145.5 Z"/></g>
<g><path style="opacity:1" fill="#10b4e0" d="M 159.5,149.5 C 164.383,151.774 169.383,153.774 174.5,155.5C 174.34,157.153 173.674,158.486 172.5,159.5C 167.302,157.881 162.302,155.881 157.5,153.5C 158.167,152.167 158.833,150.833 159.5,149.5 Z"/></g>
<g><path style="opacity:1" fill="#1866c3" d="M 103.5,155.5 C 104.058,156.79 105.058,157.623 106.5,158C 121.125,163.65 135.458,169.817 149.5,176.5C 146.946,177.388 144.279,177.721 141.5,177.5C 132.988,174.158 124.655,170.324 116.5,166C 110.051,163.907 103.718,161.74 97.5,159.5C 99.2228,157.782 101.223,156.449 103.5,155.5 Z"/></g>
<g><path style="opacity:1" fill="#15a1d9" d="M 157.5,153.5 C 162.302,155.881 167.302,157.881 172.5,159.5C 171.471,162.891 169.471,165.557 166.5,167.5C 161.284,164.202 155.617,161.869 149.5,160.5C 152.167,158.167 154.833,155.833 157.5,153.5 Z"/></g>
<g><path style="opacity:1" fill="#215abf" d="M 97.5,159.5 C 103.718,161.74 110.051,163.907 116.5,166C 124.655,170.324 132.988,174.158 141.5,177.5C 140.417,177.539 139.417,177.873 138.5,178.5C 132.675,177.712 127.008,176.712 121.5,175.5C 122.239,175.631 122.906,175.464 123.5,175C 114.075,170.288 104.408,166.121 94.5,162.5C 95.1667,161.167 96.1667,160.167 97.5,159.5 Z"/></g>
<g><path style="opacity:1" fill="#168dd2" d="M 149.5,160.5 C 155.617,161.869 161.284,164.202 166.5,167.5C 164.909,169.633 162.909,171.299 160.5,172.5C 160.423,171.25 159.756,170.417 158.5,170C 151.569,166.847 144.569,164.347 137.5,162.5C 141.7,162.81 145.7,162.143 149.5,160.5 Z"/></g>
<g><path style="opacity:1" fill="#197ecc" d="M 115.5,158.5 C 122.707,160.475 130.04,161.808 137.5,162.5C 144.569,164.347 151.569,166.847 158.5,170C 159.756,170.417 160.423,171.25 160.5,172.5C 158.5,173.5 156.5,174.5 154.5,175.5C 154.5,174.5 154.5,173.5 154.5,172.5C 147.017,169.233 139.35,166.4 131.5,164C 129.888,163.28 128.388,163.446 127,164.5C 122.999,162.574 119.166,160.574 115.5,158.5 Z"/></g>
<g><path style="opacity:1" fill="#1872c8" d="M 103.5,155.5 C 107.416,156.812 111.416,157.812 115.5,158.5C 119.166,160.574 122.999,162.574 127,164.5C 128.388,163.446 129.888,163.28 131.5,164C 139.35,166.4 147.017,169.233 154.5,172.5C 154.5,173.5 154.5,174.5 154.5,175.5C 152.883,176.038 151.216,176.371 149.5,176.5C 135.458,169.817 121.125,163.65 106.5,158C 105.058,157.623 104.058,156.79 103.5,155.5 Z"/></g>
<g><path style="opacity:1" fill="#2350bb" d="M 94.5,162.5 C 104.408,166.121 114.075,170.288 123.5,175C 122.906,175.464 122.239,175.631 121.5,175.5C 111.076,173.644 100.742,171.311 90.5,168.5C 89.0683,168.267 88.5683,167.6 89,166.5C 90.9917,165.335 92.825,164.002 94.5,162.5 Z"/></g>
</svg>
